<mxfile host="Electron" agent="Mozilla/5.0 (Macintosh; Intel Mac OS X 10_15_7) AppleWebKit/537.36 (KHTML, like Gecko) draw.io/25.0.2 Chrome/128.0.6613.186 Electron/32.2.5 Safari/537.36" version="25.0.2">
  <diagram name="Page-1" id="EAWZPw46b4yR1JpxekwW">
    <mxGraphModel dx="783" dy="701" grid="1" gridSize="10" guides="1" tooltips="1" connect="1" arrows="1" fold="1" page="1" pageScale="1" pageWidth="850" pageHeight="1100" math="0" shadow="0">
      <root>
        <mxCell id="0" />
        <mxCell id="1" parent="0" />
        <mxCell id="Ybb01oyWF0-F3o-oev-e-3" style="rounded=0;orthogonalLoop=1;jettySize=auto;html=1;" parent="1" source="Ybb01oyWF0-F3o-oev-e-19" target="Ybb01oyWF0-F3o-oev-e-20" edge="1">
          <mxGeometry relative="1" as="geometry">
            <mxPoint x="50" y="80" as="sourcePoint" />
          </mxGeometry>
        </mxCell>
        <mxCell id="Ybb01oyWF0-F3o-oev-e-5" style="edgeStyle=none;shape=connector;rounded=0;orthogonalLoop=1;jettySize=auto;html=1;strokeColor=default;align=center;verticalAlign=middle;fontFamily=Helvetica;fontSize=11;fontColor=default;labelBackgroundColor=default;endArrow=classic;" parent="1" source="Ybb01oyWF0-F3o-oev-e-1" target="Ybb01oyWF0-F3o-oev-e-4" edge="1">
          <mxGeometry relative="1" as="geometry" />
        </mxCell>
        <mxCell id="Ybb01oyWF0-F3o-oev-e-1" value="r" style="ellipse;whiteSpace=wrap;html=1;aspect=fixed;fillColor=none;" parent="1" vertex="1">
          <mxGeometry x="120" y="40" width="40" height="40" as="geometry" />
        </mxCell>
        <mxCell id="Ybb01oyWF0-F3o-oev-e-7" style="edgeStyle=none;shape=connector;rounded=0;orthogonalLoop=1;jettySize=auto;html=1;strokeColor=default;align=center;verticalAlign=middle;fontFamily=Helvetica;fontSize=11;fontColor=default;labelBackgroundColor=default;endArrow=classic;" parent="1" source="Ybb01oyWF0-F3o-oev-e-2" target="Ybb01oyWF0-F3o-oev-e-6" edge="1">
          <mxGeometry relative="1" as="geometry" />
        </mxCell>
        <mxCell id="Ybb01oyWF0-F3o-oev-e-2" value="" style="ellipse;whiteSpace=wrap;html=1;aspect=fixed;fillColor=none;" parent="1" vertex="1">
          <mxGeometry x="180" y="140" width="40" height="40" as="geometry" />
        </mxCell>
        <mxCell id="Ybb01oyWF0-F3o-oev-e-9" style="edgeStyle=none;shape=connector;rounded=0;orthogonalLoop=1;jettySize=auto;html=1;strokeColor=default;align=center;verticalAlign=middle;fontFamily=Helvetica;fontSize=11;fontColor=default;labelBackgroundColor=default;endArrow=classic;" parent="1" source="Ybb01oyWF0-F3o-oev-e-4" target="Ybb01oyWF0-F3o-oev-e-19" edge="1">
          <mxGeometry relative="1" as="geometry" />
        </mxCell>
        <mxCell id="Ybb01oyWF0-F3o-oev-e-4" value="" style="ellipse;whiteSpace=wrap;html=1;aspect=fixed;fillColor=none;" parent="1" vertex="1">
          <mxGeometry x="200" y="40" width="40" height="40" as="geometry" />
        </mxCell>
        <mxCell id="Ybb01oyWF0-F3o-oev-e-6" value="" style="ellipse;whiteSpace=wrap;html=1;aspect=fixed;fillColor=none;" parent="1" vertex="1">
          <mxGeometry x="140" y="220" width="40" height="40" as="geometry" />
        </mxCell>
        <mxCell id="Ybb01oyWF0-F3o-oev-e-18" style="edgeStyle=none;shape=connector;rounded=0;orthogonalLoop=1;jettySize=auto;html=1;strokeColor=#ef4444;align=center;verticalAlign=middle;fontFamily=Helvetica;fontSize=11;fontColor=default;labelBackgroundColor=default;endArrow=classic;" parent="1" source="Ybb01oyWF0-F3o-oev-e-8" target="Ybb01oyWF0-F3o-oev-e-10" edge="1">
          <mxGeometry relative="1" as="geometry" />
        </mxCell>
        <mxCell id="Ybb01oyWF0-F3o-oev-e-8" value="u" style="ellipse;whiteSpace=wrap;html=1;aspect=fixed;fillColor=none;" parent="1" vertex="1">
          <mxGeometry x="300" y="260" width="40" height="40" as="geometry" />
        </mxCell>
        <mxCell id="Ybb01oyWF0-F3o-oev-e-10" value="v" style="ellipse;whiteSpace=wrap;html=1;aspect=fixed;fillColor=none;" parent="1" vertex="1">
          <mxGeometry x="200" y="282.11" width="40" height="40" as="geometry" />
        </mxCell>
        <mxCell id="Ybb01oyWF0-F3o-oev-e-11" style="edgeStyle=none;shape=connector;rounded=0;orthogonalLoop=1;jettySize=auto;html=1;strokeColor=default;align=center;verticalAlign=middle;fontFamily=Helvetica;fontSize=11;fontColor=default;labelBackgroundColor=default;endArrow=classic;" parent="1" source="Ybb01oyWF0-F3o-oev-e-6" target="Ybb01oyWF0-F3o-oev-e-10" edge="1">
          <mxGeometry relative="1" as="geometry">
            <mxPoint x="230" y="302.11" as="targetPoint" />
          </mxGeometry>
        </mxCell>
        <mxCell id="Ybb01oyWF0-F3o-oev-e-12" value="0" style="text;html=1;align=center;verticalAlign=middle;whiteSpace=wrap;rounded=0;fontFamily=Helvetica;fontSize=11;fontColor=default;labelBackgroundColor=none;" parent="1" vertex="1">
          <mxGeometry x="90" y="45" width="30" height="30" as="geometry" />
        </mxCell>
        <mxCell id="Ybb01oyWF0-F3o-oev-e-13" value="3" style="text;html=1;align=center;verticalAlign=middle;whiteSpace=wrap;rounded=0;fontFamily=Helvetica;fontSize=11;fontColor=default;labelBackgroundColor=none;" parent="1" vertex="1">
          <mxGeometry x="150" y="145" width="30" height="30" as="geometry" />
        </mxCell>
        <mxCell id="Ybb01oyWF0-F3o-oev-e-14" value="1" style="text;html=1;align=center;verticalAlign=middle;whiteSpace=wrap;rounded=0;fontFamily=Helvetica;fontSize=11;fontColor=default;labelBackgroundColor=none;" parent="1" vertex="1">
          <mxGeometry x="240" y="45" width="30" height="30" as="geometry" />
        </mxCell>
        <mxCell id="Ybb01oyWF0-F3o-oev-e-15" value="4" style="text;html=1;align=center;verticalAlign=middle;whiteSpace=wrap;rounded=0;fontFamily=Helvetica;fontSize=11;fontColor=default;labelBackgroundColor=none;" parent="1" vertex="1">
          <mxGeometry x="110" y="225" width="30" height="30" as="geometry" />
        </mxCell>
        <mxCell id="Ybb01oyWF0-F3o-oev-e-16" value="2" style="text;html=1;align=center;verticalAlign=middle;whiteSpace=wrap;rounded=0;fontFamily=Helvetica;fontSize=11;fontColor=default;labelBackgroundColor=none;" parent="1" vertex="1">
          <mxGeometry x="300" y="105.00000000000001" width="30" height="30" as="geometry" />
        </mxCell>
        <mxCell id="Ybb01oyWF0-F3o-oev-e-17" value="5" style="text;html=1;align=center;verticalAlign=middle;whiteSpace=wrap;rounded=0;fontFamily=Helvetica;fontSize=11;fontColor=default;labelBackgroundColor=none;" parent="1" vertex="1">
          <mxGeometry x="170" y="287.11" width="30" height="30" as="geometry" />
        </mxCell>
        <mxCell id="Ybb01oyWF0-F3o-oev-e-22" style="edgeStyle=none;shape=connector;rounded=0;orthogonalLoop=1;jettySize=auto;html=1;strokeColor=default;align=center;verticalAlign=middle;fontFamily=Helvetica;fontSize=11;fontColor=default;labelBackgroundColor=default;endArrow=classic;" parent="1" source="Ybb01oyWF0-F3o-oev-e-19" target="Ybb01oyWF0-F3o-oev-e-2" edge="1">
          <mxGeometry relative="1" as="geometry" />
        </mxCell>
        <mxCell id="Ybb01oyWF0-F3o-oev-e-19" value="" style="ellipse;whiteSpace=wrap;html=1;aspect=fixed;fillColor=none;" parent="1" vertex="1">
          <mxGeometry x="260" y="100.00000000000001" width="40" height="40" as="geometry" />
        </mxCell>
        <mxCell id="Ybb01oyWF0-F3o-oev-e-23" style="edgeStyle=none;shape=connector;rounded=0;orthogonalLoop=1;jettySize=auto;html=1;strokeColor=default;align=center;verticalAlign=middle;fontFamily=Helvetica;fontSize=11;fontColor=default;labelBackgroundColor=default;endArrow=classic;" parent="1" source="Ybb01oyWF0-F3o-oev-e-20" target="Ybb01oyWF0-F3o-oev-e-8" edge="1">
          <mxGeometry relative="1" as="geometry" />
        </mxCell>
        <mxCell id="Ybb01oyWF0-F3o-oev-e-20" value="" style="ellipse;whiteSpace=wrap;html=1;aspect=fixed;fillColor=none;" parent="1" vertex="1">
          <mxGeometry x="320" y="162.11" width="40" height="40" as="geometry" />
        </mxCell>
        <mxCell id="Ybb01oyWF0-F3o-oev-e-21" value="3" style="text;html=1;align=center;verticalAlign=middle;whiteSpace=wrap;rounded=0;fontFamily=Helvetica;fontSize=11;fontColor=default;labelBackgroundColor=none;" parent="1" vertex="1">
          <mxGeometry x="360" y="162.11" width="30" height="30" as="geometry" />
        </mxCell>
        <mxCell id="Ybb01oyWF0-F3o-oev-e-24" value="4" style="text;html=1;align=center;verticalAlign=middle;whiteSpace=wrap;rounded=0;fontFamily=Helvetica;fontSize=11;fontColor=default;labelBackgroundColor=none;" parent="1" vertex="1">
          <mxGeometry x="340" y="265" width="30" height="30" as="geometry" />
        </mxCell>
      </root>
    </mxGraphModel>
  </diagram>
</mxfile>
